<?xml version="1.0" encoding="UTF-8"?>
<!DOCTYPE svg PUBLIC "-//W3C//DTD SVG 1.1//EN" "http://www.w3.org/Graphics/SVG/1.1/DTD/svg11.dtd">
<!-- Creator: CorelDRAW -->
<svg xmlns="http://www.w3.org/2000/svg" xml:space="preserve" width="133.369mm" height="140.232mm" style="shape-rendering:geometricPrecision; text-rendering:geometricPrecision; image-rendering:optimizeQuality; fill-rule:evenodd; clip-rule:evenodd"
viewBox="0 0 133.369 140.232"
 xmlns:xlink="http://www.w3.org/1999/xlink">
 <defs>
  <style type="text/css">
   <![CDATA[
    .fil5 {fill:white}
    .fil4 {fill:#005678}
    .fil0 {fill:#56BBED}
    .fil2 {fill:#5387A2;fill-opacity:0.701961}
    .fil3 {fill:#5797B8;fill-opacity:0.701961}
    .fil1 {fill:#59A8D1;fill-opacity:0.701961}
   ]]>
  </style>
 </defs>
 <g id="Warstwa_x0020_1">
  <metadata id="CorelCorpID_0Corel-Layer"/>
  <path class="fil0" d="M105.959 82.3744l-15.0014 -46.1698 -48.546 0 -15.0014 46.1698 39.2744 28.5345 39.2744 -28.5345zm-105.459 9.2464l0 -43.0092 25.2803 -34.7953 40.9042 -13.2906 40.9042 13.2906 25.2803 34.7953 0 43.0092 -25.2803 34.7953 -40.9042 13.2906 -40.9042 -13.2906 -25.2803 -34.7953zm2.6027 0.1797l23.9136 32.9142 38.6682 12.5641 0 -24.6243 -39.6162 -28.7828 -22.9656 7.9288zm64.5818 45.4783l38.6682 -12.5641 23.9136 -32.9142 -22.9656 -7.9288 -39.6162 28.7828 0 24.6243zm63.1845 -47.3861l0 -40.6313 -23.908 -32.9065 -14.1662 19.0322 15.1368 46.5866 22.9374 7.919zm-25.5323 -74.7052l-38.6522 -12.5588 -38.6522 12.5588 14.155 19.0171 48.9944 0 14.155 -19.0171zm-102.837 74.7052l0 -40.6313 23.908 -32.9065 14.1662 19.0322 -15.1368 46.5866 -22.9374 7.919z"/>
  <g id="_220336528">
   <polygon id="_220671144" class="fil1" points="1.5,48.9365 26.3983,14.667 66.6845,1.5772 66.6845,27.5846 26.2345,56.9732 "/>
   <polygon id="_220671528" class="fil2" points="1.5,48.9365 1.5,91.2959 26.3983,125.565 41.685,104.525 26.2345,56.9732 "/>
   <polygon id="_220671552" class="fil2" points="26.3983,125.565 66.6845,138.655 106.971,125.565 91.684,104.525 41.685,104.525 "/>
   <polygon id="_220671072" class="fil3" points="106.971,125.565 131.869,91.2959 131.869,48.9365 107.135,56.9732 91.684,104.525 "/>
   <polygon id="_220334296" class="fil1" points="131.869,48.9365 106.971,14.667 66.6845,1.5772 66.6845,27.5846 107.135,56.9732 "/>
  </g>
  <path class="fil4" d="M0 48.4491l25.4712 -35.0581 41.2133 -13.391 41.2133 13.391 25.4712 35.0581 0 43.3342 -25.4712 35.0581 -41.2133 13.391 -41.2133 -13.391 -25.4712 -35.0581 0 -43.3342zm3.9271 -0.3012l23.3983 -32.2049 37.8591 -12.3012 0 23.1785 -39.2134 28.4901 -22.044 -7.1625zm-0.9271 2.8532l0 39.8074 23.3983 32.2049 13.6239 -18.7518 -14.9781 -46.098 -22.0441 -7.1625zm25.8253 73.7757l37.8592 12.3012 37.8592 -12.3012 -13.624 -18.7518 -48.4704 0 -13.624 18.7518zm78.1454 -1.7634l23.3983 -32.2049 0 -39.8074 -22.0441 7.1625 -14.9781 46.098 13.6239 18.7518zm22.4712 -74.8655l-23.3983 -32.2049 -37.8591 -12.3012 0 23.1785 39.2134 28.4901 22.044 -7.1625z"/>
  <path class="fil5" d="M33.6431 57.3033l23.9703 9.7314 5.0353 21.9819 -2.9114 0.7279 -4.699 -20.5137 -22.13 -8.9884 0.7348 -2.9391zm11.3272 13.0124l7.1998 25.4097 31.7325 -0.0001 7.5608 -22.2791 2.9208 0.7302 -8.3318 24.549 -36.1507 0.0001 -7.8436 -27.6817 2.9122 -0.7281zm23.9767 -31.2685l26.1795 15.9523 -1.6658 2.4988 -26.1795 -15.9523 1.6658 -2.4988zm-0.867 37.6502l2.7727 -10.7518 -28.9028 -11.6544 16.5343 -9.9206 30.934 16.4044 -8.6195 28.2532 -11.7426 0 0 -3.0004 9.5214 0 7.2493 -23.7616 -27.2516 -14.4516 -9.9137 5.9482 25.7568 10.3857 -3.4274 13.2767 -2.9109 -0.7278zm-2.4591 3.3743l3 0 0 3 -3 0 0 -3z"/>
 </g>
</svg>
